<?xml version="1.0" encoding="utf-8"?>
<!-- Generator: Adobe Illustrator 23.1.1, SVG Export Plug-In . SVG Version: 6.00 Build 0)  -->
<svg version="1.1" id="Calque_1" xmlns="http://www.w3.org/2000/svg" xmlns:xlink="http://www.w3.org/1999/xlink" x="0px" y="0px"
	 viewBox="0 0 268.816 104.239" style="enable-background:new 0 0 268.816 104.239;" xml:space="preserve">
<style type="text/css">
	.st0{fill:#1E1E1E;}
	.st1{fill:#00AAAD;}
	.st2{fill:#FFFFFF;}
	.st3{fill:url(#SVGID_1_);}
	.st4{fill:url(#SVGID_2_);}
	.st5{fill:url(#SVGID_3_);}
	.st6{fill:url(#SVGID_4_);}
	.st7{fill:url(#SVGID_5_);}
	.st8{fill:url(#SVGID_6_);}
	.st9{fill:url(#SVGID_7_);}
	.st10{fill:url(#SVGID_8_);}
	.st11{fill:#FEFFFF;}
	.st12{fill:url(#SVGID_9_);}
	.st13{fill:url(#SVGID_10_);}
	.st14{fill:url(#SVGID_11_);}
	.st15{fill:url(#SVGID_12_);}
	.st16{fill:url(#SVGID_13_);}
	.st17{fill:url(#SVGID_14_);}
	.st18{fill:url(#SVGID_15_);}
	.st19{fill:url(#SVGID_16_);}
</style>
<linearGradient id="SVGID_1_" gradientUnits="userSpaceOnUse" x1="0" y1="52.1194" x2="61.4199" y2="52.1194">
	<stop  offset="0" style="stop-color:#e91e63"/>
	<stop  offset="1" style="stop-color:#8e24aa"/>
</linearGradient>
<path class="st3" d="M0.755,53.942l49.542,49.542c1.007,1.007,2.638,1.007,3.645,0l6.723-6.723c1.007-1.007,1.007-2.638,0-3.645
	L22.85,55.301l-1.359-1.36c-1.006-1.007-1.006-2.638,0-3.645l1.359-1.36l37.814-37.814c1.007-1.007,1.007-2.638,0-3.645
	l-6.723-6.723c-1.007-1.007-2.638-1.007-3.645,0L0.755,50.297C-0.252,51.303-0.252,52.935,0.755,53.942z"/>
<linearGradient id="SVGID_2_" gradientUnits="userSpaceOnUse" x1="207.396" y1="52.1194" x2="268.8159" y2="52.1194">
	<stop  offset="0" style="stop-color:#e91e63"/>
	<stop  offset="1" style="stop-color:#8e24aa"/>
</linearGradient>
<path class="st4" d="M268.061,53.942l-49.542,49.542c-1.007,1.007-2.638,1.007-3.645,0l-6.723-6.723
	c-1.007-1.007-1.007-2.638,0-3.645l37.814-37.814l1.359-1.36c1.007-1.007,1.007-2.638,0-3.645l-1.359-1.36l-37.814-37.814
	c-1.007-1.007-1.007-2.638,0-3.645l6.723-6.723c1.007-1.007,2.638-1.007,3.645,0l49.542,49.542
	C269.068,51.303,269.068,52.935,268.061,53.942z"/>
<path class="st2" d="M103.305,37.736c-2.19,0-4.242,0.018-6.286,0.018c-0.808,0-1.142-0.173-1.283-1.034
	c-0.541-3.322-0.578-6.624,0.074-9.931c0.088-0.446,0.233-0.674,0.742-0.673c7.049,0.014,14.098,0.01,21.147,0.013
	c0.133,0,0.266,0.031,0.452,0.054c0.023,0.268,0.061,0.508,0.061,0.748c-0.001,18.983,0.027,37.966-0.052,56.948
	c-0.01,2.36-0.374,4.77-0.946,7.064c-1.3,5.206-4.748,8.515-9.769,10.261c-2.704,0.94-5.503,1.307-8.342,1.383
	c-3.703,0.098-7.368-0.278-11.003-0.989c-0.6-0.117-0.82-0.351-0.798-0.988c0.113-3.231,0.454-6.415,1.592-9.476
	c0.236-0.633,0.512-0.839,1.215-0.699c2.237,0.444,4.491,0.7,6.781,0.358c2.824-0.421,4.834-1.895,5.591-4.658
	c0.478-1.744,0.76-3.595,0.785-5.402c0.091-6.687,0.038-13.376,0.039-20.065c0.001-7.271,0-14.542,0-21.814
	C103.305,38.527,103.305,38.199,103.305,37.736z M132.725,81.896c0.188,0.047,0.379,0.085,0.57,0.114
	c4.392,0.675,8.786,0.683,13.184,0.049c1.479-0.213,1.218-0.173,1.218-1.413c0.005-25.444,0.004-50.888,0.004-76.332
	c0-0.222-0.016-0.445,0.001-0.666c0.039-0.489-0.191-0.675-0.665-0.745c-4.503-0.663-9.002-0.7-13.516-0.074
	c-0.899,0.125-1.092,0.435-1.091,1.293c0.024,25.583,0.019,51.165,0.019,76.748c0,0.302,0,0.605,0,0.886
	C132.579,81.824,132.648,81.877,132.725,81.896z M179.803,26.052c-5.197-0.812-10.396-0.738-15.59,0.007
	c-0.289,0.041-0.642,0.334-0.785,0.605c-4.446,8.475-8.875,16.959-13.278,25.457c-0.144,0.278-0.132,0.774,0.021,1.051
	c5.172,9.377,10.365,18.742,15.584,28.093c0.18,0.322,0.636,0.63,1.003,0.687c4.691,0.731,9.396,0.738,14.104,0.15
	c0.542-0.068,1.081-0.156,1.722-0.249c-0.21-0.393-0.359-0.682-0.517-0.967c-5.21-9.388-10.416-18.778-15.646-28.154
	c-0.336-0.602-0.358-1.049-0.015-1.666c4.444-7.972,8.858-15.961,13.279-23.947c0.157-0.284,0.302-0.574,0.485-0.923
	C179.954,26.11,179.881,26.064,179.803,26.052z M116.779,3.397c-0.097-0.602-0.346-0.892-0.964-1.023
	c-4.711-0.996-9.413-0.979-14.121,0.015c-0.563,0.119-0.819,0.366-0.918,0.96c-0.346,2.063-0.511,4.123-0.505,6.184h0
	c-0.005,2.045,0.154,4.09,0.483,6.136c0.097,0.602,0.346,0.892,0.964,1.023c4.711,0.996,9.413,0.979,14.121-0.015
	c0.563-0.119,0.819-0.366,0.918-0.96c0.346-2.063,0.511-4.123,0.505-6.184h0C117.267,7.489,117.108,5.444,116.779,3.397z"/>
</svg>
